<?xml version="1.0" encoding="UTF-8" standalone="no"?>
<!DOCTYPE svg PUBLIC "-//W3C//DTD SVG 1.1//EN"
 "http://www.w3.org/Graphics/SVG/1.1/DTD/svg11.dtd">
<!-- Generated by graphviz version 2.40.1 (20161225.0304)
 -->
<!-- Title: dependencies Pages: 1 -->
<svg width="544pt" height="284pt"
 viewBox="0.00 0.00 544.00 284.00" xmlns="http://www.w3.org/2000/svg" xmlns:xlink="http://www.w3.org/1999/xlink">
<g id="graph0" class="graph" transform="scale(1 1) rotate(0) translate(4 280)">
<title>dependencies</title>
<polygon fill="#ffffff" stroke="transparent" points="-4,4 -4,-280 540,-280 540,4 -4,4"/>
<text text-anchor="start" x="247.0091" y="-42.4" font-family="sans-serif" font-weight="bold" font-size="14.00" fill="#000000">Legend</text>
<polygon fill="#ffffb3" stroke="transparent" points="34,-10 34,-30 54,-30 54,-10 34,-10"/>
<text text-anchor="start" x="57.629" y="-15.4" font-family="sans-serif" font-size="14.00" fill="#000000"> &#160;Declarations</text>
<polygon fill="#8dd3c7" stroke="transparent" points="147,-10 147,-30 167,-30 167,-10 147,-10"/>
<text text-anchor="start" x="170.7251" y="-15.4" font-family="sans-serif" font-size="14.00" fill="#000000"> &#160;Module</text>
<polygon fill="#80b1d3" stroke="transparent" points="233,-10 233,-30 253,-30 253,-10 233,-10"/>
<text text-anchor="start" x="256.7812" y="-15.4" font-family="sans-serif" font-size="14.00" fill="#000000"> &#160;Bootstrap</text>
<polygon fill="#fdb462" stroke="transparent" points="330,-10 330,-30 350,-30 350,-10 330,-10"/>
<text text-anchor="start" x="353.6732" y="-15.4" font-family="sans-serif" font-size="14.00" fill="#000000"> &#160;Providers</text>
<polygon fill="#fb8072" stroke="transparent" points="426,-10 426,-30 446,-30 446,-10 426,-10"/>
<text text-anchor="start" x="449.7258" y="-15.4" font-family="sans-serif" font-size="14.00" fill="#000000"> &#160;Exports</text>
<g id="clust1" class="cluster">
<title>cluster_AppModule</title>
<polygon fill="none" stroke="#000000" stroke-dasharray="1,5" points="8,-70 8,-268 528,-268 528,-70 8,-70"/>
</g>
<g id="clust2" class="cluster">
<title>cluster_AppModule_declarations</title>
<polygon fill="none" stroke="#000000" points="348,-78 348,-130 520,-130 520,-78 348,-78"/>
</g>
<g id="clust4" class="cluster">
<title>cluster_AppModule_imports</title>
<polygon fill="none" stroke="#000000" points="214,-78 214,-130 340,-130 340,-78 214,-78"/>
</g>
<g id="clust6" class="cluster">
<title>cluster_AppModule_bootstrap</title>
<polygon fill="none" stroke="#000000" points="233,-208 233,-260 321,-260 321,-208 233,-208"/>
</g>
<g id="clust7" class="cluster">
<title>cluster_AppModule_providers</title>
<polygon fill="none" stroke="#000000" points="16,-78 16,-130 206,-130 206,-78 16,-78"/>
</g>
<!-- APP_DECLARATIONS -->
<g id="node1" class="node">
<title>APP_DECLARATIONS</title>
<polygon fill="#ffffb3" stroke="#000000" points="511.979,-122 356.021,-122 356.021,-86 511.979,-86 511.979,-122"/>
<text text-anchor="middle" x="434" y="-99.8" font-family="Times,serif" font-size="14.00" fill="#000000">APP_DECLARATIONS</text>
</g>
<!-- AppModule -->
<g id="node2" class="node">
<title>AppModule</title>
<polygon fill="#8dd3c7" stroke="#000000" points="318.6571,-187 315.6571,-191 294.6571,-191 291.6571,-187 235.3429,-187 235.3429,-151 318.6571,-151 318.6571,-187"/>
<text text-anchor="middle" x="277" y="-164.8" font-family="Times,serif" font-size="14.00" fill="#000000">AppModule</text>
</g>
<!-- APP_DECLARATIONS&#45;&gt;AppModule -->
<g id="edge1" class="edge">
<title>APP_DECLARATIONS&#45;&gt;AppModule</title>
<path fill="none" stroke="#000000" d="M434,-122.1061C434,-141.3391 434,-169 434,-169 434,-169 328.6609,-169 328.6609,-169"/>
<polygon fill="#000000" stroke="#000000" points="328.661,-165.5001 318.6609,-169 328.6609,-172.5001 328.661,-165.5001"/>
</g>
<!-- IonicApp  -->
<g id="node4" class="node">
<title>IonicApp </title>
<polygon fill="#80b1d3" stroke="#000000" points="313.3734,-252 240.6266,-252 240.6266,-216 313.3734,-216 313.3734,-252"/>
<text text-anchor="middle" x="277" y="-229.8" font-family="Times,serif" font-size="14.00" fill="#000000">IonicApp </text>
</g>
<!-- AppModule&#45;&gt;IonicApp  -->
<g id="edge3" class="edge">
<title>AppModule&#45;&gt;IonicApp </title>
<path fill="none" stroke="#000000" stroke-dasharray="1,5" d="M277,-187.1061C277,-187.1061 277,-205.991 277,-205.991"/>
<polygon fill="#000000" stroke="#000000" points="273.5001,-205.9909 277,-215.991 280.5001,-205.991 273.5001,-205.9909"/>
</g>
<!-- APP_IMPORTS -->
<g id="node3" class="node">
<title>APP_IMPORTS</title>
<polygon fill="#8dd3c7" stroke="#000000" points="331.8385,-122 328.8385,-126 307.8385,-126 304.8385,-122 222.1615,-122 222.1615,-86 331.8385,-86 331.8385,-122"/>
<text text-anchor="middle" x="277" y="-99.8" font-family="Times,serif" font-size="14.00" fill="#000000">APP_IMPORTS</text>
</g>
<!-- APP_IMPORTS&#45;&gt;AppModule -->
<g id="edge2" class="edge">
<title>APP_IMPORTS&#45;&gt;AppModule</title>
<path fill="none" stroke="#000000" d="M277,-122.1061C277,-122.1061 277,-140.991 277,-140.991"/>
<polygon fill="#000000" stroke="#000000" points="273.5001,-140.9909 277,-150.991 280.5001,-140.991 273.5001,-140.9909"/>
</g>
<!-- APP_PROVIDERS -->
<g id="node5" class="node">
<title>APP_PROVIDERS</title>
<ellipse fill="#fdb462" stroke="#000000" cx="111" cy="-104" rx="87.437" ry="18"/>
<text text-anchor="middle" x="111" y="-99.8" font-family="Times,serif" font-size="14.00" fill="#000000">APP_PROVIDERS</text>
</g>
<!-- APP_PROVIDERS&#45;&gt;AppModule -->
<g id="edge4" class="edge">
<title>APP_PROVIDERS&#45;&gt;AppModule</title>
<path fill="none" stroke="#000000" d="M111,-122.1061C111,-141.3391 111,-169 111,-169 111,-169 225.1112,-169 225.1112,-169"/>
<polygon fill="#000000" stroke="#000000" points="225.1112,-172.5001 235.1112,-169 225.1112,-165.5001 225.1112,-172.5001"/>
</g>
</g>
</svg>
